# xmcd
#
# Track frame offsets: 
#        150
#        23620
#        39203
#        52075
#        75913
#        96266
#        107869
#        122323
#        143530
#        168905
#        187441
#        202462
#        219678
#        228276
#        252612
#        263975
#        298726
#
# Disc length: 4385 seconds
#
# Revision: 2
# Processed by: cddbd v1.5.1PL2 Copyright (c) Steve Scherf et al.
# Submitted via: ExactAudioCopy v0.95b3
#
DISCID=fa111f11
DTITLE=Flesh Eaters - A Hard Road to Follow
DYEAR=1983
DGENRE=Rock
TTITLE0=Life's a Dirty Rat
TTITLE1=Rhymes
TTITLE2=The Hammer Hits the Nail
TTITLE3=My Destiny
TTITLE4=Buried Treasure
TTITLE5=I Take What I Want
TTITLE6=Eyes Without a Face
TTITLE7=Father of Lies
TTITLE8=Fistful of Vodka
TTITLE9=Every Time I Call your Name
TTITLE10=We'll Never Die
TTITLE11=Poison Arrow
TTITLE12=Impossible Crime (bonus track)
TTITLE13=Hard Road to Follow (bonus track)
TTITLE14=Pony Dress (bonus track)
TTITLE15=Lake of Burning Fire (bonus track)
TTITLE16=Divine Horseman (live) (bonus track)
EXTD=
EXTT0=
EXTT1=
EXTT2=
EXTT3=
EXTT4=
EXTT5=
EXTT6=
EXTT7=
EXTT8=
EXTT9=
EXTT10=
EXTT11=
EXTT12=
EXTT13=
EXTT14=
EXTT15=
EXTT16=
PLAYORDER=
